<?xml version="1.0" encoding="utf-8"?>
<!-- Generator: Adobe Illustrator 19.0.0, SVG Export Plug-In . SVG Version: 6.00 Build 0)  -->
<svg version="1.1" id="Layer_1" xmlns="http://www.w3.org/2000/svg" xmlns:xlink="http://www.w3.org/1999/xlink" x="0px" y="0px"
	 viewBox="-296 395.4 2.5 1.8" style="enable-background:new -296 395.4 2.5 1.8;" xml:space="preserve">
<style type="text/css">
	.st0{fill:#FF6B55;}
	.st1{fill:#FA1919;}
	.st2{fill:#C40000;}
</style>
<path class="st0" d="M-279.5,396.1c-0.4-0.4-0.9-0.6-1.4-0.6c-0.5,0-1,0.2-1.4,0.6l-1.7,1.7c-1,0.9-0.3,2.6,1.1,2.6
	c0.7,0,1.3-0.4,2.1-0.4c0.8,0,1.4,0.3,2.1,0.4c1.3,0,2-1.7,1-2.6L-279.5,396.1z"/>
<path class="st0" d="M-276.6,393.7c-0.7-0.1-1.2,0.6-1.3,1.3c-0.4,2,1.5,2.4,2,0.4C-275.7,394.6-276,393.8-276.6,393.7z"/>
<path class="st0" d="M-279.4,394.8c0.7,0,1.2-0.8,1.2-1.7c-0.1-2.3-2.4-2.3-2.4,0C-280.6,394-280.1,394.8-279.4,394.8z"/>
<path class="st0" d="M-284,395c-0.1-0.7-0.6-1.4-1.3-1.3c-1.2,0.3-0.7,3,0.5,3C-284.1,396.7-283.8,395.9-284,395z"/>
<path class="st0" d="M-282.5,394.8c0.7,0,1.2-0.8,1.2-1.7c-0.1-2.3-2.4-2.3-2.4,0C-283.7,394-283.2,394.8-282.5,394.8z"/>
<path class="st1" d="M-295.2,395.8c0,0,0.2,0,0.2,0c0.2,0.1,0.4,0.2,0.5,0.4c0.1,0,0.1,0.1,0.3,0.2c0.1,0,0.1,0,0.2,0
	c0.2,0,0.4,0,0.4,0c0,0-0.3,0.1-0.3,0.3c-0.1,0.2,0,0.3,0,0.3c0,0-0.1-0.1-0.2-0.2c-0.1-0.1-0.2-0.2-0.3-0.2c-0.1,0-0.3-0.1-0.4,0
	c0,0.1,0.1,0.2,0.1,0.2c0,0,0,0-0.4-0.2c-0.2-0.1-0.2-0.1-0.2-0.2c0-0.1,0.3-0.1,0.3-0.2C-295.1,396-295.3,395.8-295.2,395.8
	L-295.2,395.8z"/>
<path class="st2" d="M-294,396.7c0-0.1-0.1-0.1-0.4-0.2c-0.3-0.1-0.3-0.1-0.3-0.1c-0.2,0-0.2,0.1-0.3,0c-0.1,0-0.2-0.1-0.3-0.2
	c-0.1,0-0.1,0-0.1,0.1c0,0,0.1,0.1,0.2,0.2c0,0,0.4,0.3,0.4,0.2c0,0-0.1-0.1-0.1-0.2c0-0.1,0.3,0,0.6,0.1c0.2,0.1,0.3,0.2,0.3,0.3
	C-293.9,396.9-294,396.8-294,396.7L-294,396.7z"/>
<path d="M-294,397.1C-294,397.1-294.1,397.1-294,397.1c-0.1,0-0.1-0.1-0.1-0.1c0,0-0.1-0.1-0.2-0.2c-0.1-0.1-0.2-0.1-0.3-0.2
	c-0.1,0-0.1,0-0.2-0.1c-0.1,0-0.1,0-0.1,0c0,0,0,0,0,0c0,0,0,0,0,0c0,0,0,0.1,0,0.1c0,0-0.1,0-0.1,0c0,0-0.1,0-0.1-0.1
	c-0.1,0-0.2-0.1-0.3-0.2c-0.1-0.1-0.2-0.2-0.3-0.3c-0.1-0.1-0.2-0.3-0.2-0.4c0.1-0.2,0.3-0.2,0.4-0.3c0.2,0,0.4,0,0.4,0
	c0.2,0.1,0.3,0.2,0.4,0.2c0,0,0,0,0,0c0,0,0,0.1-0.1,0.1c0,0,0,0,0,0c-0.1-0.1-0.2-0.2-0.4-0.2c-0.1,0-0.2-0.1-0.4,0
	c0,0-0.1,0-0.2,0.1c-0.1,0-0.1,0.1-0.1,0.1c0,0.1,0.1,0.2,0.1,0.3c0.1,0.1,0.2,0.2,0.3,0.3c-0.2-0.1-0.1-0.1,0,0
	c0.1,0.1,0.3,0.2,0.3,0.2c0,0,0,0,0,0c0,0,0-0.1,0-0.1c0-0.1,0.1-0.1,0.2,0c0.1,0,0.2,0.1,0.2,0.1c0.1,0,0.2,0.1,0.3,0.2
	c0.1,0.1,0.1,0.1,0.2,0.2c0-0.1,0-0.1,0-0.2c0.1-0.1,0.2-0.2,0.3-0.3l0,0c0,0-0.1,0-0.2,0c-0.1,0-0.2,0-0.2,0
	c-0.1,0-0.2-0.1-0.2-0.2c0,0,0-0.1,0-0.1c0,0,0,0,0,0c0,0,0-0.1,0.1-0.1c0,0,0,0,0,0c0,0,0,0.1,0,0.1c0.1,0.1,0.1,0.1,0.2,0.2
	c0,0,0.1,0,0.2,0c0.1,0,0.1,0,0.2,0c0.1,0,0.1,0,0.1,0c0,0,0.1,0,0.1,0.1c0,0,0,0.1,0,0.1c0,0,0,0-0.1,0c-0.1,0-0.2,0.1-0.2,0.2
	c0,0.1,0,0.1,0,0.2C-293.9,397-293.9,397-294,397.1C-293.9,397.1-294,397.1-294,397.1C-294,397.1-294,397.1-294,397.1
	C-294,397.1-294,397.1-294,397.1L-294,397.1z"/>
<path d="M-294.5,396C-294.5,396-294.5,396-294.5,396C-294.5,396-294.5,396-294.5,396L-294.5,396C-294.5,396-294.5,396-294.5,396
	c-0.1-0.1,0-0.1,0-0.1C-294.4,395.9-294.4,395.9-294.5,396L-294.5,396C-294.4,396-294.4,396-294.5,396
	C-294.4,396-294.4,396-294.5,396L-294.5,396z"/>
<path d="M-295.4,396C-295.4,396-295.4,396-295.4,396c0.1,0,0.1,0,0.1-0.1c0,0,0-0.1,0-0.1c0,0,0,0,0,0
	C-295.4,395.9-295.4,395.9-295.4,396C-295.4,396-295.4,396-295.4,396L-295.4,396z"/>
</svg>
