<?xml version="1.0" encoding="utf-8"?>
<!-- Generator: Adobe Illustrator 19.0.0, SVG Export Plug-In . SVG Version: 6.00 Build 0)  -->
<svg version="1.1" id="Layer_1" xmlns="http://www.w3.org/2000/svg" xmlns:xlink="http://www.w3.org/1999/xlink" x="0px" y="0px"
	 viewBox="-174 367 263 59" style="enable-background:new -174 367 263 59;" xml:space="preserve">
<style type="text/css">
	.st0{fill:#FF6B55;}
	.st1{fill:#FFFFFF;filter:url(#Adobe_OpacityMaskFilter);}
	.st2{mask:url(#path-1-inside-1_1635_61070);fill:#F4EDE6;}
</style>
<path class="st0" d="M-10.3,420.2c24.7-0.5,43.5-1.4,62-4.5c6.7-1.1,13.3-2.8,19.7-4.7c2.9-0.8,5.6-2.4,8-4c4-2.7,4.1-5.6,0.5-8.5
	c-2.4-1.9-5.2-3.6-8.1-5c-7.5-3.7-15.6-6.1-23.9-8.3c-20.3-5.5-41.1-8.7-62.2-10.8c-24-2.3-48-2.8-72.1-1.4
	c-17.7,1.1-35.4,3-52.9,6.1c-9.9,1.7-19.7,3.5-29.6,5.2c-0.1,0-0.3,0.1-0.4,0.1c-2.6,0.4-4.1-0.1-4.5-1.5c-0.3-1.3,0.8-2.3,3.5-2.8
	c16.8-3.4,33.7-6.8,50.8-8.9c18.4-2.2,36.9-3.6,55.5-3.8c31.5-0.2,62.7,2.4,93.4,8.5c12.2,2.4,24.2,5.3,35.6,9.6
	c5.3,2,10.3,4.5,15.2,7.1c2.1,1.1,4,2.8,5.5,4.6c3.4,3.9,3.2,8.3-0.7,11.9c-2.3,2.1-5.1,3.8-8,5.2c-6.9,3.3-14.4,4.8-22,6
	c-24.5,3.9-49.1,5-73.9,4.8c-10-0.1-20.1-0.1-30.1-0.4c-13-0.4-26-0.8-38.9-1.7c-12.2-0.8-24.4-1.8-36.4-3.2
	c-6.8-0.8-13.6-2.3-20.3-3.9c-3.1-0.8-6.2-2.1-8.9-3.8c-6-3.7-6.5-9-1.6-13.8c2.8-2.9,6.5-4.7,10.4-6.3c8.7-3.5,17.9-5.8,27.2-7.6
	c12.9-2.5,26-3.6,39.1-3.5c3.3,0,4.8,0.8,4.7,2.3c-0.1,1.4-1.4,2.1-4.5,2.3c-7.8,0.5-15.7,0.8-23.5,1.6c-13.4,1.4-26.4,4.1-38.8,8.7
	c-2.8,1-5.6,2.4-8.1,4c-5.7,3.7-5.3,7.1,0.9,9.8c3,1.3,6.2,2.2,9.4,3c10.1,2.3,20.4,3.6,30.8,4.2c19.8,1.2,39.5,2.4,59.3,3.1
	C-33.5,420.3-19,420.1-10.3,420.2z"/>
<defs>
	<filter id="Adobe_OpacityMaskFilter" filterUnits="userSpaceOnUse" x="-175.6" y="365.4" width="265.9" height="61.7">
		<feColorMatrix  type="matrix" values="1 0 0 0 0  0 1 0 0 0  0 0 1 0 0  0 0 0 1 0"/>
	</filter>
</defs>
<mask maskUnits="userSpaceOnUse" x="-175.6" y="365.4" width="265.9" height="61.7" id="path-1-inside-1_1635_61070">
	<path class="st1" d="M-10.3,420.2c24.7-0.5,43.5-1.4,62-4.5c6.7-1.1,13.3-2.8,19.7-4.7c2.9-0.8,5.6-2.4,8-4c4-2.7,4.1-5.6,0.5-8.5
		c-2.4-1.9-5.2-3.6-8.1-5c-7.5-3.7-15.6-6.1-23.9-8.3c-20.3-5.5-41.1-8.7-62.2-10.8c-24-2.3-48-2.8-72.1-1.4
		c-17.7,1.1-35.4,3-52.9,6.1c-9.9,1.7-19.7,3.5-29.6,5.2c-0.1,0-0.3,0.1-0.4,0.1c-2.6,0.4-4.1-0.1-4.5-1.5c-0.3-1.3,0.8-2.3,3.5-2.8
		c16.8-3.4,33.7-6.8,50.8-8.9c18.4-2.2,36.9-3.6,55.5-3.8c31.5-0.2,62.7,2.4,93.4,8.5c12.2,2.4,24.2,5.3,35.6,9.6
		c5.3,2,10.3,4.5,15.2,7.1c2.1,1.1,4,2.8,5.5,4.6c3.4,3.9,3.2,8.3-0.7,11.9c-2.3,2.1-5.1,3.8-8,5.2c-6.9,3.3-14.4,4.8-22,6
		c-24.5,3.9-49.1,5-73.9,4.8c-10-0.1-20.1-0.1-30.1-0.4c-13-0.4-26-0.8-38.9-1.7c-12.2-0.8-24.4-1.8-36.4-3.2
		c-6.8-0.8-13.6-2.3-20.3-3.9c-3.1-0.8-6.2-2.1-8.9-3.8c-6-3.7-6.5-9-1.6-13.8c2.8-2.9,6.5-4.7,10.4-6.3c8.7-3.5,17.9-5.8,27.2-7.6
		c12.9-2.5,26-3.6,39.1-3.5c3.3,0,4.8,0.8,4.7,2.3c-0.1,1.4-1.4,2.1-4.5,2.3c-7.8,0.5-15.7,0.8-23.5,1.6
		c-13.4,1.4-26.4,4.1-38.8,8.7c-2.8,1-5.6,2.4-8.1,4c-5.7,3.7-5.3,7.1,0.9,9.8c3,1.3,6.2,2.2,9.4,3c10.1,2.3,20.4,3.6,30.8,4.2
		c19.8,1.2,39.5,2.4,59.3,3.1C-33.5,420.3-19,420.1-10.3,420.2z"/>
</mask>
<path class="st2" d="M-10.3,420.2l0,2l0,0l0,0L-10.3,420.2z M51.8,415.8l-0.3-2l0,0L51.8,415.8z M71.5,411.1l-0.5-1.9l0,0
	L71.5,411.1z M79.5,407.1l1.1,1.6v0L79.5,407.1z M80,398.7l-1.2,1.6l0,0L80,398.7z M71.9,393.6l-0.9,1.8l0,0L71.9,393.6z
	 M48.1,385.3l0.5-1.9l0,0L48.1,385.3z M-14.2,374.5l0.2-2v0L-14.2,374.5z M-86.3,373.1l0.1,2h0L-86.3,373.1z M-139.2,379.2l-0.3-2
	l0,0L-139.2,379.2z M-168.7,384.4l-0.3-2l0,0l0,0L-168.7,384.4z M-169.1,384.5l0.3,2l0.1,0l0.1,0L-169.1,384.5z M-173.6,382.9
	l-2,0.4l0,0L-173.6,382.9z M-170,380.1l0.4,2l0,0L-170,380.1z M-119.2,371.2l-0.2-2l0,0L-119.2,371.2z M-63.7,367.4l0,2h0
	L-63.7,367.4z M29.7,375.9l-0.4,2l0,0L29.7,375.9z M65.3,385.4l0.7-1.9l0,0L65.3,385.4z M80.5,392.6l-0.9,1.8l0,0L80.5,392.6z
	 M85.9,397.1l-1.5,1.3l0,0L85.9,397.1z M85.2,409l-1.3-1.5l0,0L85.2,409z M77.2,414.2l-0.9-1.8v0L77.2,414.2z M55.2,420.3l-0.3-2
	l0,0L55.2,420.3z M-18.7,425.1l0-2h0L-18.7,425.1z M-48.9,424.6l-0.1,2l0,0L-48.9,424.6z M-87.8,423l-0.1,2h0L-87.8,423z
	 M-124.3,419.8l-0.2,2l0,0L-124.3,419.8z M-144.5,415.9l-0.5,1.9l0,0L-144.5,415.9z M-153.4,412.1l-1,1.7l0,0L-153.4,412.1z
	 M-155.1,398.3l-1.4-1.4l0,0L-155.1,398.3z M-144.7,391.9l-0.8-1.9l0,0L-144.7,391.9z M-117.4,384.4l-0.4-2h0L-117.4,384.4z
	 M-78.3,380.9l0,2l0,0L-78.3,380.9z M-73.6,383.2l2,0.1v0L-73.6,383.2z M-78.1,385.5l-0.1-2l0,0L-78.1,385.5z M-101.6,387l-0.2-2
	l0,0L-101.6,387z M-140.5,395.7l0.7,1.9l0,0L-140.5,395.7z M-148.5,399.7l-1.1-1.7l0,0L-148.5,399.7z M-147.6,409.5l-0.8,1.8l0,0
	L-147.6,409.5z M-138.3,412.4l0.5-1.9h0L-138.3,412.4z M-107.4,416.6l0.1-2l0,0L-107.4,416.6z M-48.1,419.8l0.1-2l0,0L-48.1,419.8z
	 M-10.2,422.2c24.7-0.5,43.6-1.4,62.3-4.5l-0.6-3.9c-18.4,3-37.1,3.9-61.7,4.4L-10.2,422.2z M52.1,417.8c6.8-1.1,13.5-2.9,20-4.7
	l-1.1-3.8c-6.5,1.8-13,3.6-19.5,4.6L52.1,417.8z M72,413c3.2-0.9,6.1-2.6,8.6-4.3l-2.3-3.3c-2.3,1.6-4.8,3-7.4,3.7L72,413z
	 M80.6,408.8c2.1-1.5,3.8-3.3,4-5.7c0.1-2.4-1.4-4.4-3.3-6l-2.5,3.1c1.6,1.3,1.9,2.2,1.8,2.6c0,0.5-0.4,1.4-2.2,2.6L80.6,408.8z
	 M81.2,397.1c-2.6-2-5.5-3.8-8.4-5.3l-1.8,3.6c2.8,1.4,5.4,3,7.7,4.8L81.2,397.1z M72.8,391.8c-7.7-3.8-16-6.3-24.2-8.5l-1,3.9
	c8.2,2.2,16.2,4.6,23.5,8.2L72.8,391.8z M48.6,383.3c-20.4-5.5-41.4-8.8-62.6-10.9l-0.4,4c21,2.1,41.8,5.3,61.9,10.7L48.6,383.3z
	 M-14,372.5c-24.1-2.4-48.2-2.9-72.4-1.4l0.2,4c24-1.5,47.9-1,71.8,1.4L-14,372.5z M-86.4,371.1c-17.8,1.1-35.5,3-53.1,6.1l0.7,3.9
	c17.4-3.1,35-5,52.6-6L-86.4,371.1z M-139.5,377.2c-9.9,1.7-19.7,3.5-29.6,5.2l0.7,3.9c9.9-1.7,19.7-3.5,29.6-5.2L-139.5,377.2z
	 M-169.1,382.4c-0.1,0-0.3,0.1-0.4,0.1l0.8,3.9c0.1,0,0.2,0,0.3-0.1L-169.1,382.4z M-169.4,382.5c-1.1,0.2-1.8,0.1-2.1,0
	c-0.1,0-0.1-0.1-0.1,0c0,0,0.1,0.1,0,0.1l-3.9,0.9c0.3,1.5,1.4,2.4,2.7,2.9c1.2,0.4,2.6,0.4,4,0.2L-169.4,382.5z M-171.6,382.5
	c0,0,0,0.1,0,0.2c0,0.1-0.1,0.1,0,0.1c0.2-0.2,0.8-0.5,2-0.7l-0.8-3.9c-1.4,0.3-2.8,0.7-3.8,1.5c-0.5,0.4-1,1-1.2,1.6
	c-0.3,0.7-0.3,1.4-0.1,2.1L-171.6,382.5z M-169.6,382.1c16.9-3.4,33.6-6.8,50.7-8.9l-0.5-4c-17.2,2.1-34.1,5.6-51,8.9L-169.6,382.1z
	 M-119,373.2c18.4-2.2,36.8-3.6,55.3-3.8l0-4c-18.7,0.1-37.2,1.6-55.7,3.8L-119,373.2z M-63.7,369.4c31.4-0.2,62.5,2.4,93,8.4
	l0.8-3.9c-30.8-6.1-62.2-8.7-93.8-8.5L-63.7,369.4z M29.3,377.8c12.1,2.4,24,5.3,35.3,9.5l1.4-3.7c-11.6-4.3-23.7-7.3-35.9-9.7
	L29.3,377.8z M64.6,387.3c5.1,1.9,10.1,4.4,15,7l1.9-3.5c-4.9-2.6-10-5.2-15.4-7.2L64.6,387.3z M79.5,394.3c1.8,1,3.5,2.5,4.9,4.1
	l3-2.6c-1.6-1.9-3.6-3.8-6.1-5.1L79.5,394.3z M84.4,398.5c1.4,1.7,2,3.2,1.9,4.7c-0.1,1.4-0.8,2.9-2.4,4.4l2.7,3
	c2.3-2,3.6-4.5,3.8-7.2c0.1-2.7-0.9-5.3-2.9-7.5L84.4,398.5z M83.9,407.6c-2.1,1.9-4.7,3.6-7.5,4.9l1.7,3.6c3-1.4,6-3.3,8.5-5.5
	L83.9,407.6z M76.4,412.4c-6.6,3.1-13.9,4.7-21.5,5.9l0.6,4c7.7-1.2,15.5-2.8,22.6-6.2L76.4,412.4z M54.9,418.3
	c-24.3,3.9-48.9,5-73.6,4.7l0,4c24.8,0.2,49.6-0.9,74.3-4.8L54.9,418.3z M-18.7,423.1c-10.1-0.1-20.1-0.1-30.1-0.4l-0.1,4
	c10.1,0.3,20.1,0.3,30.2,0.4L-18.7,423.1z M-48.8,422.6c-13-0.4-26-0.8-38.9-1.7l-0.3,4c13,0.8,26,1.3,39,1.7L-48.8,422.6z
	 M-87.7,421c-12.2-0.8-24.3-1.8-36.3-3.2l-0.5,4c12.1,1.4,24.3,2.4,36.5,3.2L-87.7,421z M-124,417.8c-6.7-0.8-13.4-2.3-20-3.9
	l-0.9,3.9c6.7,1.6,13.5,3.2,20.5,4L-124,417.8z M-144,413.9c-2.9-0.7-5.8-2-8.3-3.5l-2.1,3.4c2.8,1.7,6.1,3.2,9.5,4L-144,413.9z
	 M-152.4,410.4c-2.7-1.6-3.8-3.4-3.9-5c-0.2-1.6,0.5-3.6,2.7-5.7l-2.8-2.8c-2.7,2.7-4.2,5.8-3.8,9c0.4,3.2,2.5,5.9,5.8,8
	L-152.4,410.4z M-153.7,399.7c2.6-2.6,5.9-4.3,9.7-5.9l-1.5-3.7c-4,1.6-7.9,3.6-11.1,6.8L-153.7,399.7z M-143.9,393.8
	c8.5-3.5,17.6-5.7,26.9-7.5l-0.8-3.9c-9.4,1.8-18.7,4.1-27.6,7.7L-143.9,393.8z M-117.1,386.3c12.8-2.5,25.7-3.6,38.7-3.5l0-4
	c-13.3-0.1-26.5,1-39.6,3.5L-117.1,386.3z M-78.3,382.9c1.6,0,2.4,0.2,2.8,0.4c0.1,0.1,0.1,0.1,0,0c-0.1-0.1-0.1-0.2-0.1-0.2l4,0.3
	c0-0.7-0.1-1.5-0.5-2.2c-0.4-0.7-1-1.1-1.7-1.5c-1.2-0.6-2.8-0.8-4.5-0.8L-78.3,382.9z M-75.6,383c0,0,0,0,0.1-0.1
	C-75.5,382.9-75.5,382.9-75.6,383c-0.4,0.1-1.2,0.3-2.7,0.4l0.2,4c1.6-0.1,3.1-0.3,4.2-0.9c0.6-0.3,1.1-0.7,1.6-1.3
	c0.4-0.6,0.6-1.3,0.7-1.9L-75.6,383z M-78.3,383.5c-7.8,0.5-15.7,0.8-23.6,1.6l0.4,4c7.8-0.8,15.5-1,23.4-1.6L-78.3,383.5z
	 M-101.8,385c-13.5,1.4-26.7,4.1-39.3,8.8l1.4,3.8c12.3-4.5,25.1-7.2,38.3-8.6L-101.8,385z M-141.2,393.8c-2.9,1.1-5.9,2.5-8.5,4.1
	l2.2,3.4c2.3-1.5,5-2.8,7.7-3.8L-141.2,393.8z M-149.6,398c-1.5,1-2.8,2-3.6,3.2c-0.9,1.1-1.4,2.5-1.3,4c0.1,1.5,0.9,2.7,2,3.7
	c1.1,1,2.5,1.8,4.2,2.5l1.6-3.7c-1.5-0.6-2.4-1.2-3-1.8c-0.6-0.5-0.7-0.9-0.7-1.1c0-0.2,0-0.6,0.5-1.2c0.5-0.6,1.3-1.4,2.6-2.2
	L-149.6,398z M-148.4,411.3c3.1,1.3,6.4,2.3,9.7,3.1l0.9-3.9c-3.1-0.7-6.2-1.7-9-2.8L-148.4,411.3z M-138.7,414.4
	c10.2,2.4,20.7,3.6,31.1,4.3l0.2-4c-10.3-0.6-20.5-1.9-30.5-4.2L-138.7,414.4z M-107.6,418.6c19.8,1.2,39.6,2.4,59.4,3.1l0.2-4
	c-19.8-0.7-39.5-1.9-59.3-3.1L-107.6,418.6z M-48.2,421.8c14.6,0.6,29.2,0.4,37.9,0.5l0-4c-8.8-0.1-23.3,0.1-37.8-0.5L-48.2,421.8z"
	/>
</svg>
