<?xml version="1.0" encoding="utf-8"?>
<!-- Generator: Adobe Illustrator 19.0.0, SVG Export Plug-In . SVG Version: 6.00 Build 0)  -->
<svg version="1.1" id="Layer_1" xmlns="http://www.w3.org/2000/svg" xmlns:xlink="http://www.w3.org/1999/xlink" x="0px" y="0px"
	 viewBox="-225 336 161 121" style="enable-background:new -225 336 161 121;" xml:space="preserve">
<style type="text/css">
	.st0{opacity:0.5;}
	.st1{fill:#57EFFF;}
	.st2{opacity:0.4;}
</style>
<g class="st0">
	<path class="st1" d="M-124.1,410.5c-1.2-24.6-0.5-49-0.5-73.6c0.2-0.2,0-0.7-0.4-0.7c-4.6-0.5-9.6,0.2-14.2,0.8
		c-0.2,0-0.2,0.2-0.2,0.3c-0.9,0.5-1.7,1.2-2.6,1.8c-1,0.7-2,1.2-2.9,1.9c0,0,0,0,0,0c-0.1,0-0.1,0-0.2,0c-0.2,0-0.4,0.2-0.4,0.4
		c-0.1,0.1-0.1,0.1-0.2,0.2c-0.4,1-0.8,2-1.2,3c-0.2,0-0.2,0.3-0.1,0.4c-3.4,8.7-7.9,16.6-12.8,24.6c-0.1,0-0.2,0-0.2,0
		c-0.2,0-0.2,0.3,0,0.3c0,0,0,0,0.1,0c-0.1,0.2-0.3,0.5-0.4,0.7c-0.1,0.1,0,0.2,0.1,0.3c0,0.1,0,0.2,0,0.2c0.8,1.9,2.6,3.5,4,5
		c1.3,1.5,2.6,3.5,4.4,4.6c0.2,0.1,0.3,0,0.4-0.1c0.1,0.1,0.2,0.1,0.4,0.1c0.7-0.2,1.4-0.4,2.1-0.6c1-0.3,2.4-0.6,3.3-1.2
		c0.1-0.1,0.1-0.2,0.1-0.3c0.6-0.4,1.1-1.2,1.5-1.9c0.2-0.3,0.4-0.6,0.6-0.9c-0.4,11.8-0.8,23.7-0.7,35.5c0,0,0,0,0,0
		c-0.2,0-0.3,0.4-0.1,0.4c0,0,0,0,0.1,0c0,1,0,2,0,3c0,0.2,0.1,0.3,0.2,0.4c-0.1,0.3,0.1,0.6,0.5,0.6c4.6-0.3,9-0.1,13.6,0.2
		c0.1,0,0.2,0,0.2-0.1c0.1,0,0.2,0,0.3-0.1c0.1,0,0.2,0,0.3-0.1c1.7-1.4,3.4-2.8,5.2-4.2C-123.5,411.2-123.7,410.6-124.1,410.5z
		 M-144.9,376.4c-0.4,0.6-0.9,1.2-1,1.9c0,0,0,0,0,0c-0.7-0.1-1.5,0.4-2.2,0.6c-0.5,0.2-1,0.3-1.4,0.5c-0.4,0.2-0.8,0.3-1.2,0.5
		c-0.1,0-0.2,0.1-0.3,0.1c2.7-4.2,5.6-8.4,7.9-12.8c-0.1,2.3-0.2,4.7-0.2,7C-144,374.9-144.5,375.7-144.9,376.4z M-143.4,414.8
		c0.1-0.9,0.1-1.9,0.1-2.8c1.7,0.2,3.4,0.5,5.2,0.7c0.3,0,0.3-0.5,0-0.5c-1.7-0.2-3.4-0.4-5.1-0.6c0.1-1.1,0.1-2.1,0.1-3.2
		c0,0.1,0.1,0.2,0.2,0.2c2.1,0.1,4.1,0.3,6.2,0.3c0.4,0,0.4-0.5,0-0.6c-2.1-0.1-4.1-0.2-6.2-0.2c-0.1,0-0.2,0.1-0.2,0.2
		c0.1-1.5,0.1-3,0.2-4.5c1.2,0.1,2.4,0.3,3.6,0.2c0.2,0,0.3-0.3,0.1-0.4c-1.2-0.2-2.4-0.2-3.7-0.3c0.1-1.4,0.1-2.8,0.1-4.1
		c1.7,0.1,3.4,0.2,5-0.2c0.3-0.1,0.2-0.5-0.1-0.5c-1.7,0.1-3.3,0.2-4.9,0.2c0.1-2.2,0.1-4.4,0.2-6.6c2.1,0.4,4.3,0.4,6.5,0
		c0.3-0.1,0.2-0.6-0.1-0.6c-2.2,0.2-4.3,0.2-6.4,0c0-1.1,0-2.1,0.1-3.2c1.1,0,2.2,0.1,3.2,0c0.2,0,0.2-0.3,0-0.4
		c-1.1-0.1-2.1,0-3.2,0c0-2.3,0.1-4.5,0.1-6.8c1.4-0.2,2.7-0.1,4.1-0.1c0.3,0,0.4-0.5,0.1-0.6c-1.4-0.2-2.8-0.1-4.1,0.1
		c0-1.4,0-2.9,0.1-4.3c1.3,0,2.7-0.1,4-0.2c0.4,0,0.4-0.6,0-0.6c-1.3,0-2.6,0.1-4,0.2c0.1-3.6,0.1-7.1,0.2-10.7c0-0.7-1-0.7-1.1,0
		c0,0,0,0,0,0c0,0-0.1,0-0.1,0.1c-3.4,4.3-6.1,9.5-8.6,14.4c-0.6-1-1.5-1.9-2.3-2.7c1.1-0.3,2.2-0.3,3.4-0.3c0.2,0,0.3-0.4,0.1-0.4
		c-1.2-0.2-2.5,0-3.7,0.4c-0.3-0.4-0.7-0.7-1-1.1c-0.5-0.5-0.9-1.1-1.4-1.7c1.7,0.3,3.5,0.5,5.3,0.4c0.3,0,0.3-0.5,0-0.5
		c-1.9-0.1-3.9-0.1-5.8-0.4c-0.8-0.9-1.6-1.8-2.5-2.3c0.2-0.3,0.4-0.6,0.6-0.9c3.2,0.2,6.6,0.2,9.8,0c0.3,0,0.3-0.4,0-0.5
		c-3.1-0.2-6.4-0.2-9.5,0.1c1.3-1.7,2.5-3.5,3.6-5.3c2.9-0.1,5.7,0.2,8.6,0.4c0.2,0,0.3-0.4,0.1-0.4c-2.7-0.6-5.6-0.6-8.4-0.4
		c0.9-1.5,1.8-3,2.7-4.6c1.5-0.1,3-0.1,4.4-0.1c0.3,0,0.3-0.5,0-0.5c-1.4-0.1-2.8-0.1-4.2,0c0.6-1.1,1.2-2.3,1.7-3.4
		c1.1-0.1,2.1-0.2,3.2-0.4c0.2,0,0.2-0.5-0.1-0.4c-1,0.1-1.9,0.2-2.9,0.4c0.7-1.5,1.4-3,2.1-4.5c1.8,0,3.6,0,5.4-0.2
		c0.3,0,0.4-0.5,0-0.5c-1.7,0-3.5,0.2-5.2,0.3c0.7-1.6,1.3-3.2,2-4.9c1.1,0,2.2,0.1,3.2,0c0.3,0,0.3-0.5,0-0.5c-1-0.1-2,0-3,0
		c0.2-0.5,0.4-1,0.6-1.5c0.9-0.2,1.7-0.1,2.6,0.1c0.3,0.1,0.4-0.4,0.1-0.5c-0.8-0.3-1.7-0.3-2.6-0.1c0.1-0.2,0.2-0.5,0.3-0.7
		c0,0,0-0.1,0-0.1c4.5,0.2,9.4,0.3,13.8-0.6c0.1,0,0.2-0.1,0.3-0.2c0,0,0,0,0,0.1c-1,24.5-0.8,49.3,0.2,73.8
		C-134.6,414.2-139.2,414.2-143.4,414.8z M-129.2,414.7c-0.9-24.5-0.2-49-0.6-73.6c0-0.5-0.6-0.5-0.8-0.2c0.1-0.3-0.1-0.7-0.4-0.7
		c-4.1-0.1-8.3,0.4-12.4,0.7c0.6-0.3,1.3-0.7,1.9-1.1c1-0.6,2.1-1.2,2.9-2.1c0.1-0.1,0.1-0.2,0.1-0.3c4.4,0,9,0.1,13.3-0.5
		c-2,24.4-1.2,49.3-0.1,73.7c0,0.1,0,0.2,0.1,0.3C-126.6,412.2-128,413.4-129.2,414.7z"/>
	<path class="st1" d="M-138.6,385.2c-0.9-0.1-1.8,0-2.6,0c-0.3,0-0.3,0.4,0,0.4c0.9,0,1.8,0.1,2.6,0
		C-138.3,385.6-138.3,385.2-138.6,385.2z"/>
	<path class="st1" d="M-139.1,372.8c-0.9,0.2-1.9,0.3-2.8,0.3c-0.2,0-0.2,0.3,0,0.3c1,0.1,2,0.1,2.9-0.2
		C-138.8,373.1-138.9,372.8-139.1,372.8z"/>
	<path class="st1" d="M-139.1,368.8c-0.9,0-1.9,0.1-2.9,0.2c-0.3,0-0.3,0.5,0,0.5c1-0.1,2,0,2.9-0.2
		C-138.7,369.3-138.8,368.9-139.1,368.8z"/>
	<path class="st1" d="M-179,396.3c0.7,1.1-0.3,5.4,0.5,8.1c1.3,4.8,5.4,8.4,9.8,11.4c0.4,0.3,1,0.3,1.4,0c5-3.5,8.1-5.5,9.3-8.6
		c1-2.7,0.4-5.9,0.9-8.7c-0.1-0.2-1.5-2.8-1.6-2.9c0,0,0,0,0,0c-3.1-2.3-6.2-3.7-9.9-4.6c0,0-0.1,0-0.2,0c-3.6,1.2-6.6,3.3-10.1,4.8
		C-179,395.9-179,396.2-179,396.3L-179,396.3z M-168.7,391.6c3.6,0.9,6.5,2.3,9.5,4.4c-0.8,2.7,0.6,6.3-0.4,9.1
		c-1.3,4.1-5.6,6.9-9.2,9.1c-4.6-2-8-5.7-9.2-10c-0.7-2.5,0.2-6.4-0.4-8C-174.9,394.6-172,392.7-168.7,391.6L-168.7,391.6z"/>
	<path class="st1" d="M-175,398.6c0.4,0.6-0.2,3.3,0.3,4.9c0.8,2.8,3,5.2,6,6.4c0.1,0.1,0.2,0,0.3-0.1c2.3-1.4,5-3.1,5.8-5.8
		c0.6-1.9-0.3-4.2,0.3-5.6c0.1-0.2,0-0.3-0.2-0.4c0,0,0,0,0,0c-1.9-0.9-3.8-1.8-6-2.8c0,0-0.1,0-0.2,0c-2,0.7-4,1.6-6.2,3
		C-175.1,398.3-175.1,398.5-175,398.6L-175,398.6z M-163.2,403.9c-0.8,2.5-3.3,4.1-5.5,5.4c-2.7-1.2-4.8-3.4-5.5-5.9
		c-0.4-1.4,0.1-3.7-0.2-4.8c2-1.2,3.8-2.1,5.7-2.7c2.1,0.9,3.9,1.8,5.7,2.6C-163.4,400.1-162.6,402.2-163.2,403.9z"/>
	<path class="st1" d="M-165.6,399.8l-3.7,4c-0.3,0.4-0.4,0.4-0.7,0l-1.7-2c-0.1-0.1-0.3-0.1-0.4,0c-0.1,0.1-0.1,0.3,0,0.4l1.7,2
		c0.5,0.6,1,0.6,1.6,0l3.7-4c0.1-0.1,0.1-0.3,0-0.4C-165.3,399.6-165.5,399.6-165.6,399.8L-165.6,399.8z"/>
	<path class="st1" d="M-156.3,390c-0.1-0.1-0.3,0-0.4,0.1l-1.7,3.2c-0.1,0.1,0,0.3,0.1,0.4c0.1,0.1,0.3,0,0.4-0.1l1.7-3.2
		C-156.1,390.3-156.1,390.1-156.3,390L-156.3,390z"/>
	<path class="st1" d="M-156.8,394.7l3.1-1.5c0.1-0.1,0.2-0.2,0.1-0.4c-0.1-0.2-0.2-0.2-0.4-0.1l-3.1,1.5c-0.1,0.1-0.2,0.2-0.1,0.4
		C-157.1,394.7-156.9,394.8-156.8,394.7L-156.8,394.7z"/>
	<path class="st1" d="M-153.4,395.8l-2.9-0.1c-0.2,0-0.3,0.1-0.3,0.3c0,0.2,0.1,0.3,0.3,0.3l2.9,0.1c0,0,0,0,0,0
		c0.2,0,0.3-0.1,0.3-0.3C-153.1,396-153.3,395.8-153.4,395.8z"/>
</g>
<g class="st2">
	<path class="st1" d="M-68.2,405c-45.5,34.6-109,33.9-152.2-4.1c-2.3-2-5.7,1.3-3.4,3.4c44.3,39.6,111.3,41.1,155.9,1.2
		C-67.5,405.3-67.9,404.8-68.2,405z"/>
	<path class="st1" d="M-69.5,403.8c-2.3-0.3-4.5,1.6-6.6,2.5c-3,1.3-6.1,1.9-9.3,2.2c-2.2,0.2-2.3,3.6,0,3.5
		c3.4-0.3,6.6-0.9,9.7-2.2c2.4-1,6.2-2.3,6.7-5.1C-68.8,404.2-69.1,403.9-69.5,403.8z"/>
	<path class="st1" d="M-68.6,404.4c-2.4,1.8-4.5,3.6-6.3,6.1c-1.9,2.6-3.3,5.5-4.5,8.5c-1,2.5,3.1,3.6,4,1.1
		c1.9-5.1,4.7-10.3,7.5-15C-67.6,404.8-68.2,404.1-68.6,404.4z"/>
</g>
</svg>
